<svg width="108" height="109" xmlns="http://www.w3.org/2000/svg"><path d="M.5 54.227C.5 24.554 24.453.5 54 .5s53.5 24.054 53.5 53.727c0 29.672-23.953 53.727-53.5 53.727S.5 83.899.5 54.227z" fill="none" stroke="#E23C3C"/><g fill="#E23C3C"><path d="M75.247 39.33h2.208a.83.83 0 01.83.833c0 .46-.371.833-.83.833H75.36a9.323 9.323 0 01-2.172 5.828l1.846 1.853a.835.835 0 01-.587 1.422.826.826 0 01-.587-.244l-1.82-1.827-2.435 2.447 1.217 1.223a.835.835 0 01-.586 1.422.826.826 0 01-.587-.244l-1.218-1.223-2.435 2.446 1.819 1.828a.835.835 0 01-.587 1.422.826.826 0 01-.587-.244l-1.819-1.828-2.436 2.447 1.217 1.223a.835.835 0 01-.586 1.422.826.826 0 01-.587-.244l-1.217-1.223-2.436 2.447 1.819 1.827a.835.835 0 01-.587 1.422.826.826 0 01-.587-.244l-1.819-1.827-2.436 2.447 1.218 1.223a.835.835 0 01-.586 1.422.826.826 0 01-.587-.244l-1.218-1.223-2.436 2.446 1.82 1.827a.835.835 0 01-.587 1.423.826.826 0 01-.587-.245l-1.819-1.827-2.436 2.447 1.218 1.223a.835.835 0 01-.587 1.422.826.826 0 01-.587-.244l-1.245-1.25a9.286 9.286 0 01-5.802 2.175v2.11c0 .46-.37.834-.83.834a.831.831 0 01-.83-.833v-2.225a9.256 9.256 0 01-4.515-2.062l-1.245 1.25a.826.826 0 01-1.174 0 .835.835 0 010-1.177l1.245-1.25a9.302 9.302 0 01-2.06-4.536H29.33a.831.831 0 01-.83-.833c0-.46.37-.833.83-.833h2.094a9.322 9.322 0 012.173-5.827l-1.245-1.25a.836.836 0 010-1.178.826.826 0 011.174 0l1.218 1.223 2.437-2.446-1.82-1.828a.835.835 0 010-1.178.826.826 0 011.173 0l1.82 1.828 2.436-2.447-1.219-1.223a.836.836 0 010-1.179.828.828 0 011.173 0l1.22 1.224 2.435-2.447-1.82-1.827a.835.835 0 010-1.179.826.826 0 011.174 0l1.82 1.828 2.435-2.446-1.218-1.224a.836.836 0 010-1.178.826.826 0 011.173 0l1.219 1.224 2.436-2.447-1.82-1.827a.835.835 0 010-1.179.826.826 0 011.174 0l1.82 1.828 2.435-2.447-1.218-1.223a.836.836 0 010-1.178.828.828 0 011.173 0l1.218 1.223 2.436-2.446-1.819-1.828a.835.835 0 010-1.178.826.826 0 011.174 0l1.846 1.855a9.28 9.28 0 015.803-2.176l-.001-2.11a.83.83 0 111.659-.001l.001 2.225a9.262 9.262 0 014.514 2.062l1.246-1.251a.828.828 0 011.174 0 .836.836 0 010 1.178l-1.245 1.25a9.3 9.3 0 012.06 4.536zm-3.793 6.93h.001a7.678 7.678 0 002.249-5.451c0-2.06-.8-3.996-2.25-5.452a7.639 7.639 0 00-5.429-2.255 7.64 7.64 0 00-5.429 2.255l-7.216 7.247-.002.002-.002.002L35.331 60.73a7.674 7.674 0 00-2.25 5.452c0 2.057.799 3.992 2.247 5.449l.003.002.003.003a7.665 7.665 0 0010.85.002l.005-.005.007-.007 3.598-3.613.004-.004.005-.005 3.595-3.61.009-.01.01-.009 7.202-7.233.007-.007.007-.007 7.207-7.238.005-.005.004-.004 3.604-3.619.001-.002z" fill-rule="evenodd"/><path d="M58.704 42.879c-1.732 1.739-3.035 4.172-1.805 5.408a.858.858 0 00.607.251c.21 0 .419-.077.576-.236a.817.817 0 00.013-1.164c-.107-.26.267-1.559 1.782-3.08a.836.836 0 000-1.18.828.828 0 00-1.173 0zm9.986-.603c-.413.416-2.498-.063-4.842-2.416a.826.826 0 00-1.174 0 .835.835 0 000 1.178c1.724 1.73 3.893 3.046 5.555 3.046.637 0 1.2-.193 1.634-.63a.836.836 0 000-1.178.827.827 0 00-1.173 0zm-18.047 9.665c-1.335 1.34-2.397 2.05-2.79 2.206a.826.826 0 00-.82.21.835.835 0 000 1.18c.22.22.48.302.748.302.625 0 1.296-.448 1.606-.655.725-.487 1.588-1.22 2.43-2.064a.837.837 0 000-1.18.827.827 0 00-1.174.001zm6.07 1.209c-4.196 4.212-3.333 5.08-3.008 5.407a.825.825 0 001.174 0 .835.835 0 00.221-.779c.19-.447 1.088-1.745 2.787-3.45a.835.835 0 000-1.179.828.828 0 00-1.174 0zm-13.891 9.062c-.575.577-2.253.183-3.639-1.208a.826.826 0 00-1.173 0 .835.835 0 000 1.178c1.264 1.27 2.77 1.952 4.047 1.952.76 0 1.438-.242 1.939-.744a.835.835 0 000-1.178.827.827 0 00-1.174 0zm-2.78 6.595a.836.836 0 00-.018-1.16.829.829 0 00-1.175.001c-1.228 1.236.076 3.669 1.807 5.407a.826.826 0 001.173 0 .835.835 0 000-1.178c-1.494-1.5-1.878-2.784-1.787-3.07z"/></g></svg>