<svg width="107" height="108" xmlns="http://www.w3.org/2000/svg"><path d="M.5 53.725C.5 24.329 24.229.5 53.5.5s53 23.83 53 53.225c0 29.395-23.729 53.224-53 53.224S.5 83.119.5 53.725z" fill="none" stroke="#E23C3C"/><g fill="#E23C3C"><path d="M80.263 26.385v-.887h-5.3v.887c0 4.447-1.81 8.729-4.96 11.89-4.338-3.5-10.408-5.681-17.122-5.681-6.713 0-12.783 2.181-17.122 5.68-3.15-3.16-4.96-7.442-4.96-11.89v-.886H25.5v.887a22.279 22.279 0 006.57 15.755c-1.93 2.688-3.037 5.785-3.037 9.081 0 7.62 5.834 14.396 14.865 17.259 3.26 1.034 5.45 4.079 5.45 7.575v4.438h7.067v-4.438c0-3.496 2.19-6.54 5.45-7.575 9.03-2.863 14.865-9.639 14.865-17.259 0-3.296-1.107-6.393-3.038-9.08 4.182-4.157 6.571-9.852 6.571-15.756zm-51.209.887h-1.768c.222 5.047 2.348 9.855 5.902 13.457.389-.444.8-.874 1.235-1.288-3.217-3.272-5.149-7.612-5.369-12.17zm47.655 0c-.221 4.557-2.152 8.897-5.37 12.169a20 20 0 011.235 1.288c3.555-3.602 5.682-8.41 5.903-13.457H76.71zM61.333 66.788c-3.998 1.269-6.685 4.993-6.685 9.267v2.664h-3.533v-2.664c0-4.273-2.687-7.998-6.686-9.267-8.28-2.625-13.63-8.736-13.63-15.567 0-9.293 9.906-16.853 22.082-16.853s22.082 7.56 22.082 16.853c0 6.831-5.35 12.942-13.63 15.567z" fill-rule="evenodd"/><path d="M52.881 39.69v1.774c7.215 0 13.583 3.53 14.814 8.21l1.708-.454c-1.428-5.433-8.53-9.53-16.522-9.53z"/><path d="M52.881 36.142c-11.202 0-20.315 6.764-20.315 15.08 0 8.314 9.113 15.079 20.315 15.079 11.203 0 20.316-6.765 20.316-15.08 0-8.315-9.113-15.079-20.316-15.079zm18.49 15.934c-2.393-.151-3.723-.872-5.113-1.633-1.69-.926-3.437-1.883-6.902-1.883-3.465 0-5.211.957-6.901 1.883-1.565.856-3.043 1.665-6.057 1.665-3.012 0-4.488-.809-6.05-1.665-1.473-.807-2.992-1.637-5.651-1.837 1.699-6.088 9.205-10.69 18.185-10.69 10.227 0 18.548 5.969 18.548 13.305 0 .289-.035.57-.06.855zm-37.038-.855c0 7.337 8.32 13.306 18.548 13.306 8.98 0 16.486-4.602 18.184-10.69-2.66-.2-4.18-1.03-5.654-1.837-1.564-.857-3.041-1.666-6.055-1.666s-4.492.81-6.057 1.666c-1.69.925-3.436 1.882-6.9 1.882-3.463 0-5.21-.957-6.9-1.882-1.389-.76-2.715-1.481-5.107-1.633-.024.284-.06.566-.06.854zm23.029 3.774c0-.828.669-1.5 1.493-1.5.825 0 1.494.672 1.494 1.5s-.669 1.5-1.494 1.5a1.497 1.497 0 01-1.493-1.5zm-12.446 2.5c-.825 0-1.494.671-1.494 1.5 0 .828.669 1.5 1.494 1.5s1.493-.672 1.493-1.5c0-.829-.668-1.5-1.493-1.5zm8.961 3c-.825 0-1.493.671-1.493 1.5 0 .828.668 1.5 1.493 1.5.825 0 1.494-.672 1.494-1.5 0-.829-.669-1.5-1.494-1.5z" fill-rule="evenodd"/></g></svg>