<svg width="107" height="108" xmlns="http://www.w3.org/2000/svg"><path d="M.5 53.725C.5 24.329 24.229.5 53.5.5s53 23.83 53 53.225c0 29.395-23.729 53.224-53 53.224S.5 83.119.5 53.725z" fill="none" stroke="#E23C3C"/><path d="M37.657 54.39c2.19-4.651 4.027-8.137 5.498-10.942 3.432-6.526 5.011-9.524 4.596-14.95 3.131 1.873 11.357 7.808 12.208 18.788.763 9.83-.495 14.042-1.306 15.678-.118.259-.27.5-.453.716a.749.749 0 00.013 1.056.74.74 0 001.018.018 27.042 27.042 0 006.86-17.013c1.856 3.43 4.763 10.239 3.13 16.965-1.61 6.619-5.686 11.472-8.053 13.842.659-2.741 1.615-7.15 1.615-9.694a.746.746 0 00-.742-.748c-.16 0-.314.05-.441.145-.04.031-3.47 2.576-5.638 3.452-1.183-1.825-5.333-8.987-4.61-17.678a.743.743 0 00-1.109-.71c-.11.069-11.996 7.114-7.539 25.366-3.59-3.332-10.822-12.006-5.036-24.29h-.011z" fill="none" stroke="#E23C3C"/></svg>