<svg width="158" height="35" xmlns="http://www.w3.org/2000/svg"><g fill-rule="evenodd"><path d="M84.943 5.516c.423-.401 1.103-.602 2.039-.602l.635.033V.033A15.821 15.821 0 0086.413 0q-3.844 0-5.866 1.889-2.023 1.888-2.023 5.365v.2h-2.24v4.814h2.24v13.84h5.717v-13.84h3.376V7.455H84.24c.044-.892.278-1.538.702-1.94zm51.647 20.592v-4.914h-1.805c-.713 0-1.22-.145-1.521-.435-.301-.29-.451-.802-.451-1.537v-6.954h3.744V7.455h-3.744v-4.58h-5.717v4.58h-2.507v4.813h2.507v6.853c0 2.496.608 4.285 1.822 5.366q1.822 1.621 5.098 1.621h2.574zM103.813 8.374q-2.19-1.153-4.964-1.153c-1.85 0-3.51.384-4.981 1.153a8.428 8.428 0 00-3.46 3.326c-.836 1.449-1.253 3.143-1.253 5.081 0 1.94.417 3.633 1.253 5.082a8.429 8.429 0 003.46 3.326c1.47.769 3.131 1.153 4.98 1.153q2.776 0 4.965-1.153a8.455 8.455 0 003.443-3.326c.836-1.449 1.254-3.143 1.254-5.082 0-1.938-.418-3.632-1.254-5.08q-1.253-2.174-3.443-3.327zm53.536 9.444c.112-.558.168-1.07.168-1.538q0-2.674-1.154-4.73a8.03 8.03 0 00-3.259-3.193c-1.404-.757-3.03-1.136-4.88-1.136-1.828 0-3.455.384-4.881 1.153a8.132 8.132 0 00-3.326 3.31c-.792 1.437-1.187 3.136-1.187 5.097 0 1.94.401 3.633 1.203 5.082.803 1.448 1.911 2.557 3.326 3.326 1.416.769 3.037 1.153 4.864 1.153 1.56 0 2.976-.295 4.246-.886 1.27-.59 2.318-1.404 3.142-2.44a7.906 7.906 0 001.605-3.527h-6.05a2.966 2.966 0 01-1.104 1.638c-.557.424-1.26.635-2.106.635-1.003 0-1.827-.306-2.474-.919q-.97-.92-1.07-3.025h12.937zm-40.148-6.854a8.112 8.112 0 012.758-2.707 7.04 7.04 0 013.66-1.003v6.117h-1.637c-1.516 0-2.691.323-3.527.97-.836.646-1.254 1.738-1.254 3.276v8.49h-5.716V7.455h5.716v3.51zm34.532 4.447c.023-1.226-.306-2.145-.986-2.758-.68-.613-1.52-.92-2.524-.92-1.047 0-1.916.312-2.607.936-.691.624-1.081 1.538-1.17 2.742h7.287zM98.85 12.168c-1.092 0-2.011.396-2.758 1.187q-1.12 1.186-1.12 3.426t1.12 3.41c.747.78 1.666 1.17 2.758 1.17s2.006-.39 2.741-1.17c.736-.78 1.103-1.917 1.103-3.41s-.367-2.635-1.103-3.426c-.735-.792-1.65-1.187-2.741-1.187z" fill="#E23C3C"/><path d="M53.252 26.108v-4.914h-1.805q-1.07 0-1.521-.435c-.3-.29-.451-.802-.451-1.537v-6.953h3.744V7.455h-3.744v-4.58h-5.717v4.58h-2.507v4.814h2.507v6.852c0 2.496.608 4.285 1.822 5.366q1.822 1.621 5.098 1.621h2.574zM15.444 9.21q-2.44-1.99-6.05-1.99c-1.828 0-3.455.385-4.881 1.154q-2.14 1.153-3.326 3.31Q0 13.84 0 16.78q0 2.909 1.203 5.082c.803 1.448 1.911 2.557 3.327 3.326q2.122 1.153 4.864 1.153c2.406 0 4.423-.663 6.05-1.989 1.627-1.326 2.652-3.148 3.076-5.466h-6.051c-.178.803-.546 1.427-1.103 1.872-.557.446-1.26.669-2.106.669-1.003 0-1.828-.396-2.474-1.187q-.97-1.187-.97-3.46 0-2.273.97-3.46c.646-.79 1.47-1.186 2.474-1.186q1.27 0 2.106.668c.557.446.925 1.07 1.103 1.872h6.05c-.423-2.317-1.448-4.14-3.075-5.465zm54.706-.836c-1.46-.769-3.114-1.153-4.964-1.153q-2.774 0-4.98 1.153a8.43 8.43 0 00-3.46 3.326c-.836 1.449-1.254 3.143-1.254 5.081 0 1.94.418 3.633 1.254 5.082a8.43 8.43 0 003.46 3.326q2.206 1.153 4.98 1.153c1.85 0 3.505-.384 4.964-1.153a8.456 8.456 0 003.444-3.327c.835-1.448 1.253-3.142 1.253-5.08 0-1.94-.418-3.633-1.253-5.082Q72.34 9.527 70.15 8.374zm-44.343-.92l4.48 11.433 4.178-11.432h6.318L29.15 35h-6.285l4.38-9.594-7.823-17.951h6.385zm39.38 4.714c-1.093 0-2.012.396-2.758 1.187-.747.79-1.12 1.933-1.12 3.426s.373 2.63 1.12 3.41q1.12 1.17 2.757 1.17c1.092 0 2.006-.39 2.741-1.17.736-.78 1.104-1.917 1.104-3.41s-.368-2.635-1.104-3.426c-.735-.791-1.649-1.187-2.74-1.187z"/></g></svg>