<?xml version="1.0" encoding="utf-8"?>
<svg width="107px" height="108px" viewBox="0 0 107 108" version="1.1" xmlns:xlink="http://www.w3.org/1999/xlink" xmlns="http://www.w3.org/2000/svg">
  <desc>Created with Lunacy</desc>
  <g id="icon" transform="translate(0.5 0.5)">
    <path d="M0 53.2247C0 23.8295 23.7289 0 53 0C82.2711 0 106 23.8295 106 53.2247C106 82.6198 82.2711 106.449 53 106.449C23.7289 106.449 0 82.6198 0 53.2247Z" id="Rectangle-4-Copy" fill="none" stroke="#E23C3C" stroke-width="1" />
    <g id="bladder" transform="translate(25 24.99777)">
      <path d="M54.763 0.887018L54.763 0L49.4633 0L49.4633 0.887018C49.4633 5.33467 47.6536 9.616 44.5035 12.7764C40.1652 9.2773 34.0953 7.09614 27.3815 7.09614C20.6676 7.09614 14.5977 9.2773 10.2594 12.7764C7.10932 9.616 5.29964 5.33467 5.29964 0.887018L5.29964 0L0 0L0 0.887018C0 6.7908 2.38846 12.4858 6.57064 16.6424C4.63977 19.3307 3.53309 22.4275 3.53309 25.7235C3.53309 33.3437 9.3671 40.1189 18.3978 42.9822C21.6579 44.0165 23.8484 47.0609 23.8484 50.5574L23.8484 54.9951L30.9146 54.9951L30.9146 50.5574C30.9146 47.0609 33.1051 44.0165 36.3652 42.9822C45.3959 40.1189 51.2299 33.3437 51.2299 25.7235C51.2299 22.4275 50.1232 19.3307 48.1923 16.6424C52.3745 12.4858 54.763 6.7908 54.763 0.887018ZM3.55441 1.77401L1.78613 1.77401C2.00781 6.82109 4.13406 11.6295 7.68828 15.2309C8.07687 14.7874 8.48832 14.3573 8.92306 13.9432C5.70609 10.6715 3.77436 6.33167 3.55441 1.77401ZM51.2089 1.77401C50.988 6.33167 49.0572 10.6715 45.8394 13.9432C46.2741 14.3581 46.6855 14.7874 47.0741 15.2309C50.6292 11.6295 52.7563 6.82109 52.9771 1.77401L51.2089 1.77401ZM35.8333 41.2904C31.8349 42.559 29.1479 46.2829 29.1479 50.5573L29.1479 53.2209L25.6149 53.2209L25.6149 50.5573C25.6149 46.2838 22.9279 42.559 18.9295 41.2904C10.6497 38.6648 5.29956 32.5545 5.29956 25.7234C5.29956 16.4301 15.2053 8.87006 27.3814 8.87006C39.5575 8.87006 49.4632 16.4301 49.4632 25.7234C49.4632 32.5545 44.1131 38.6648 35.8333 41.2904Z" id="Shape" fill="#E23C3C" fill-rule="evenodd" stroke="none" />
      <path d="M0 0L0 1.77404C7.21455 1.77404 13.5829 5.30348 14.8134 9.98328L16.5217 9.53024C15.0933 4.09726 7.99086 0 0 0L0 0Z" transform="translate(27.38135 14.19209)" id="Shape" fill="#E23C3C" stroke="none" />
      <path d="M20.3153 0C9.11264 0 0 6.76438 0 15.0793C0 23.3942 9.11264 30.1586 20.3153 30.1586C31.5179 30.1586 40.6306 23.3942 40.6306 15.0793C40.6306 6.76438 31.5179 0 20.3153 0ZM38.8044 15.9342C36.4116 15.7827 35.082 15.0624 33.6919 14.3014C32.0013 13.3754 30.255 12.4182 26.7901 12.4182C23.3251 12.4182 21.5788 13.3754 19.8891 14.3005C18.3239 15.1572 16.8459 15.9663 13.8325 15.9663C10.8204 15.9663 9.34455 15.1572 7.78114 14.3005C6.30873 13.4941 4.79017 12.6638 2.13086 12.4641C3.83013 6.37585 11.3362 1.77401 20.3156 1.77401C30.5431 1.77401 38.8643 7.74276 38.8643 15.0793C38.8643 15.3677 38.829 15.6497 38.8044 15.9342ZM1.7666 15.0794C1.7666 22.4159 10.0878 28.3846 20.3153 28.3846C29.2947 28.3846 36.8008 23.7828 38.4992 17.6945C35.8382 17.4957 34.3188 16.6654 32.8455 15.8581C31.2812 15.0014 29.8036 14.1923 26.7898 14.1923C23.776 14.1923 22.2984 15.0014 20.7333 15.8581C19.0435 16.7832 17.2972 17.7404 13.8323 17.7404C10.3699 17.7404 8.62362 16.7832 6.93384 15.8581C5.54424 15.0971 4.2176 14.3768 1.82655 14.2253C1.80197 14.5089 1.7666 14.7909 1.7666 15.0794ZM24.7959 18.8531C24.7959 18.0247 25.4646 17.3532 26.2894 17.3532C27.1143 17.3532 27.783 18.0247 27.783 18.8531C27.783 19.6814 27.1143 20.3529 26.2894 20.3529C25.4646 20.3529 24.7959 19.6814 24.7959 18.8531ZM12.35 21.3528C11.5251 21.3528 10.8564 22.0243 10.8564 22.8527C10.8564 23.6811 11.5251 24.3526 12.35 24.3526C13.1748 24.3526 13.8435 23.6811 13.8435 22.8527C13.8435 22.0243 13.1748 21.3528 12.35 21.3528ZM21.3114 24.3526C20.4865 24.3526 19.8179 25.0241 19.8179 25.8524C19.8179 26.6808 20.4865 27.3523 21.3114 27.3523C22.1363 27.3523 22.8049 26.6808 22.8049 25.8524C22.8049 25.0241 22.1363 24.3526 21.3114 24.3526Z" transform="translate(7.065918 10.64431)" id="Shape" fill="#E23C3C" fill-rule="evenodd" stroke="none" />
    </g>
  </g>
</svg>