<?xml version="1.0" encoding="utf-8"?>
<svg width="107px" height="108px" viewBox="0 0 107 108" version="1.1" xmlns:xlink="http://www.w3.org/1999/xlink" xmlns="http://www.w3.org/2000/svg">
  <desc>Created with Lunacy</desc>
  <g id="icon" transform="translate(0.5 0.5)">
    <path d="M0 53.2247C0 23.8295 23.7289 0 53 0C82.2711 0 106 23.8295 106 53.2247C106 82.6199 82.2711 106.449 53 106.449C23.7289 106.449 0 82.6199 0 53.2247Z" id="Rectangle-4" fill="none" stroke="#E23C3C" stroke-width="1" />
    <g id="fire" transform="translate(35 27.99751)">
      <path d="M2.15665 25.8931C4.34688 21.2412 6.18425 17.7554 7.65477 14.9502C11.087 8.42498 12.6663 5.42621 12.2513 0C15.382 1.87326 23.6082 7.80837 24.4585 18.7888C25.2217 28.6187 23.9641 32.8304 23.1527 34.4664C23.0346 34.7255 22.8822 34.9659 22.7004 35.1829C22.4143 35.478 22.419 35.951 22.7128 36.2382C22.9942 36.5145 23.4403 36.5223 23.731 36.2569C27.9265 31.566 30.3545 25.5466 30.5908 19.243C32.4468 22.6742 35.3537 29.482 33.7215 36.2085C32.1111 42.8274 28.0353 47.6807 25.6678 50.0503C26.3269 47.3091 27.2829 42.9007 27.2829 40.3562C27.2829 39.9441 26.9503 39.6085 26.5414 39.6085C26.3813 39.6085 26.2274 39.6584 26.1 39.7537C26.0595 39.7849 22.6304 42.3294 20.4619 43.2051C19.279 41.3803 15.1286 34.2182 15.8514 25.5278C15.8872 25.1188 15.5841 24.7567 15.1752 24.7223C15.0245 24.7083 14.8737 24.7411 14.7431 24.8176C14.6327 24.8862 2.74734 31.9312 7.20398 50.183C3.61318 46.8518 -3.61816 38.177 2.16753 25.8931L2.15665 25.8931Z" id="Shape" fill="none" stroke="#E23C3C" stroke-width="1" />
    </g>
  </g>
</svg>