<?xml version="1.0" encoding="utf-8"?>
<svg width="108px" height="109px" viewBox="0 0 108 109" version="1.1" xmlns:xlink="http://www.w3.org/1999/xlink" xmlns="http://www.w3.org/2000/svg">
  <desc>Created with Lunacy</desc>
  <g id="icon" transform="translate(0.5 0.5)">
    <path d="M0 53.7268C0 24.0543 23.9528 0 53.5 0C83.0472 0 107 24.0543 107 53.7268C107 83.3992 83.0472 107.454 53.5 107.454C23.9528 107.454 0 83.3992 0 53.7268Z" id="Rectangle-4-Copy-2" fill="none" stroke="#E23C3C" stroke-width="1" />
    <g id="bacteria" transform="translate(28 27.99751)">
      <path d="M46.7474 10.8321L48.955 10.8321C49.4139 10.8321 49.7848 11.2054 49.7844 11.6655C49.7844 12.1254 49.4136 12.4987 48.9547 12.4987L46.8604 12.4987C46.8187 14.6536 46.056 16.6896 44.6881 18.3262L46.5336 20.1795C46.858 20.5045 46.858 21.0319 46.5336 21.3577C46.3718 21.5202 46.1594 21.6018 45.9469 21.6018C45.7346 21.6018 45.5221 21.5202 45.3603 21.3577L43.5407 19.5304L41.1046 21.977L42.3225 23.2C42.647 23.5258 42.647 24.0524 42.3225 24.3783C42.1607 24.5407 41.9483 24.6224 41.7359 24.6224C41.5235 24.6224 41.311 24.5407 41.1492 24.3783L39.9315 23.1553L37.4956 25.6016L39.3147 27.4291C39.6392 27.7548 39.6392 28.2823 39.3147 28.6073C39.1529 28.7698 38.9405 28.8514 38.7281 28.8514C38.5157 28.8514 38.3033 28.7698 38.1415 28.6073L36.3224 26.7798L33.8858 29.2267L35.1035 30.4495C35.428 30.7753 35.428 31.3019 35.1035 31.6277C34.9417 31.7902 34.7293 31.8718 34.5169 31.8718C34.3045 31.8718 34.0921 31.7902 33.9303 31.6277L32.7126 30.4049L30.2767 32.8512L32.0957 34.6785C32.4202 35.0043 32.4202 35.5318 32.0957 35.8568C31.9339 36.0192 31.7215 36.1009 31.5091 36.1009C31.2967 36.1009 31.0843 36.0192 30.9225 35.8568L29.1035 34.0295L26.6672 36.4762L27.8854 37.6992C28.2099 38.0241 28.2099 38.5515 27.8854 38.8774C27.7236 39.0399 27.5113 39.1215 27.2988 39.1215C27.0864 39.1215 26.874 39.0399 26.7122 38.8774L25.4939 37.6545L23.0583 40.1006L24.8776 41.9277C25.202 42.2527 25.202 42.7801 24.8776 43.1059C24.7158 43.2684 24.5035 43.35 24.291 43.35C24.0787 43.35 23.8662 43.2684 23.7044 43.1059L21.885 41.2788L19.4489 43.7254L20.6666 44.9483C20.991 45.274 20.991 45.8007 20.6666 46.1265C20.5048 46.289 20.2924 46.3706 20.0799 46.3706C19.8676 46.3706 19.6551 46.289 19.4933 46.1265L18.248 44.8759C16.5712 46.2853 14.5145 47.0104 12.4462 47.0515L12.4462 49.1621C12.4462 49.622 12.0753 49.9953 11.6164 49.9953C11.1576 49.9953 10.7867 49.622 10.7867 49.1621L10.7867 46.9373C9.16446 46.6794 7.59877 45.9925 6.27141 44.8758L5.02553 46.1264C4.86373 46.2889 4.65136 46.3705 4.4389 46.3705C4.22654 46.3705 4.01408 46.2889 3.85228 46.1264C3.52781 45.8006 3.52781 45.2731 3.85228 44.9482L5.0969 43.6988C4.00582 42.3931 3.29989 40.8341 3.03764 39.1629L0.829712 39.1629C0.370857 39.1629 0 38.7896 0 38.3297C0 37.8698 0.370857 37.4965 0.829712 37.4965L2.92446 37.4965C2.96637 35.341 3.72908 33.3057 5.09719 31.669L3.85228 30.4194C3.52868 30.0945 3.52868 29.5662 3.85228 29.2412C4.17666 28.9154 4.70193 28.9154 5.02553 29.2412L6.24447 30.4647L8.68061 28.0183L6.86065 26.1906C6.53618 25.8656 6.53618 25.3382 6.86065 25.0124C7.18425 24.6866 7.70942 24.6866 8.0339 25.0124L9.85386 26.8401L12.2898 24.3937L11.0712 23.17C10.7476 22.845 10.7476 22.3175 11.0712 21.9917C11.3956 21.6668 11.9209 21.6668 12.2445 21.9917L13.4631 23.2155L15.8994 20.7687L14.0795 18.9411C13.755 18.6162 13.755 18.0888 14.0795 17.7629C14.4031 17.4371 14.9283 17.4371 15.2528 17.7629L17.0726 19.5905L19.5084 17.1443L18.2901 15.9209C17.9665 15.5951 17.9665 15.0676 18.2901 14.7427C18.6145 14.4168 19.1398 14.4168 19.4634 14.7427L20.6816 15.9661L23.118 13.5193L21.2984 11.6921C20.9739 11.3671 20.9739 10.8397 21.2984 10.5138C21.622 10.188 22.1472 10.188 22.4716 10.5138L24.2912 12.3411L26.7272 9.89475L25.509 8.67142C25.1854 8.34645 25.1854 7.81905 25.509 7.4932C25.8334 7.16823 26.3586 7.16823 26.6822 7.4932L27.9004 8.71653L30.3364 6.27006L28.5174 4.44258C28.1929 4.11761 28.1929 3.58934 28.5174 3.26437C28.841 2.93852 29.3662 2.93852 29.6906 3.26437L31.5371 5.11938C33.214 3.70905 35.271 2.98421 37.3398 2.9434L37.3387 0.833229C37.3387 0.373307 37.7096 0 38.1676 0L38.1684 0C38.6264 0 38.9981 0.372526 38.9981 0.832447L38.9994 3.05794C40.6209 3.31631 42.1861 4.00346 43.5131 5.11958L44.7595 3.86842C45.0831 3.54344 45.6083 3.54344 45.9327 3.86842C46.2563 4.19417 46.2563 4.72166 45.9327 5.04663L44.6879 6.29623C45.7791 7.60159 46.485 9.16063 46.7474 10.8321ZM42.9543 17.7629L42.9553 17.7619C44.4048 16.3055 45.2034 14.3696 45.2036 12.3114C45.2036 10.2515 44.4045 8.31587 42.9542 6.85936C41.4572 5.35617 39.4907 4.60457 37.5251 4.60457C35.5594 4.60457 33.5938 5.35617 32.0961 6.85936L24.8796 14.1066L24.878 14.1084L24.8761 14.1101L6.83124 32.2321C5.38087 33.6878 4.58179 35.6243 4.58179 37.6841C4.58179 39.7418 5.3799 41.6769 6.82842 43.1332C6.82929 43.134 6.83036 43.1348 6.83124 43.1357C6.83221 43.1367 6.83289 43.1377 6.83386 43.1386C9.82541 46.1392 14.6894 46.1406 17.6844 43.1408C17.6859 43.1391 17.6873 43.1374 17.689 43.1357C17.6914 43.1333 17.6941 43.1313 17.6965 43.1289L21.2942 39.5159C21.2956 39.5143 21.2969 39.5127 21.2984 39.5111C21.3 39.5096 21.3017 39.5083 21.3033 39.5067L24.8983 35.8964C24.9013 35.8933 24.9038 35.8899 24.9069 35.8867C24.9101 35.8836 24.9135 35.881 24.9166 35.8779L32.1195 28.6442C32.1217 28.6419 32.1236 28.6394 32.1258 28.6372C32.1281 28.6349 32.1306 28.6331 32.1328 28.6308L39.3405 21.3923C39.342 21.3907 39.3432 21.3891 39.3447 21.3876C39.3462 21.3861 39.3479 21.3849 39.3494 21.3834L42.9527 17.7647L42.9543 17.7629Z" id="Shape" fill="#E23C3C" fill-rule="evenodd" stroke="none" />
      <path d="M2.28838 0.243753C0.55671 1.98276 -0.745956 4.41585 0.483686 5.65159C0.648792 5.81739 0.870391 5.90322 1.09024 5.90322C1.30017 5.90322 1.50923 5.82569 1.66695 5.66653C1.9922 5.34155 2.00299 4.8291 1.67939 4.50325C1.57233 4.24331 1.94659 2.9442 3.46172 1.42265C3.7862 1.0968 3.7862 0.569408 3.46172 0.243558C3.13802 -0.0812192 2.61276 -0.0812192 2.28838 0.243753L2.28838 0.243753Z" transform="translate(27.91528 14.13766)" id="Shape" fill="#E23C3C" stroke="none" />
      <path d="M6.25894 2.66088C5.84656 3.07666 3.76144 2.5975 1.4166 0.244388C1.09213 -0.0814628 0.566957 -0.0814628 0.243356 0.244388C-0.0811197 0.56936 -0.0811197 1.09763 0.243356 1.42261C1.96754 3.15332 4.1357 4.46902 5.79853 4.46902C6.43494 4.46902 6.99754 4.27568 7.43228 3.8391C7.75588 3.51412 7.75588 2.98663 7.43228 2.66088C7.1078 2.33512 6.58254 2.33512 6.25894 2.66088L6.25894 2.66088Z" transform="translate(33.93091 11.11791)" id="Shape" fill="#E23C3C" stroke="none" />
      <path d="M3.85274 0.244498C2.5177 1.58442 1.45559 2.29432 1.06228 2.45017C0.780195 2.36853 0.46486 2.43767 0.243358 2.66099C-0.0811182 2.98674 -0.0811182 3.51346 0.243358 3.83921C0.463207 4.05999 0.722924 4.1425 0.991002 4.1425C1.61584 4.1425 2.28628 3.6942 2.59656 3.4867C3.32174 3.00002 4.1847 2.26766 5.02608 1.42272C5.34969 1.09687 5.34969 0.56947 5.02608 0.24362C4.70151 -0.0813533 4.17634 -0.0813533 3.85274 0.244498L3.85274 0.244498Z" transform="translate(18.29028 23.19936)" id="Shape" fill="#E23C3C" stroke="none" />
      <path d="M3.30733 0.243729C-0.888684 4.45674 -0.025717 5.32415 0.298663 5.65078C0.460463 5.81415 0.6737 5.89578 0.88616 5.89578C1.09862 5.89578 1.31098 5.81415 1.47278 5.65166C1.68271 5.44084 1.75739 5.14419 1.69429 4.87253C1.88351 4.42511 2.78206 3.12766 4.48058 1.42195C4.80505 1.09697 4.80505 0.569482 4.48058 0.243729C4.1562 -0.0812431 3.63181 -0.0812431 3.30733 0.243729L3.30733 0.243729Z" transform="translate(24.90601 24.40824)" id="Shape" fill="#E23C3C" stroke="none" />
      <path d="M5.05584 1.45258C4.48079 2.02919 2.80221 1.63587 1.4166 0.244388C1.093 -0.0814635 0.567735 -0.0814635 0.243356 0.244388C-0.0811189 0.56936 -0.0811189 1.09685 0.243356 1.42261C1.5079 2.69164 3.01302 3.3741 4.29089 3.3741C5.0501 3.3741 5.72881 3.13242 6.22918 2.6308C6.55366 2.30495 6.55366 1.77755 6.22918 1.45258C5.9047 1.12683 5.37944 1.12683 5.05584 1.45258L5.05584 1.45258Z" transform="translate(9.266357 32.26204)" id="Shape" fill="#E23C3C" stroke="none" />
      <path d="M1.67493 1.4032C1.98112 1.07657 1.97451 0.562452 1.65665 0.243339C1.33304 -0.0808526 0.806999 -0.0816334 0.482523 0.244119C-0.745467 1.47985 0.558075 3.91294 2.28887 5.65117C2.45067 5.81366 2.66313 5.89529 2.8755 5.89529C3.08796 5.89529 3.30032 5.81366 3.46212 5.65117C3.7865 5.32532 3.7865 4.79871 3.46212 4.47295C1.9679 2.9723 1.58372 1.68901 1.67493 1.4032L1.67493 1.4032Z" transform="translate(9.866943 38.90647)" id="Shape" fill="#E23C3C" stroke="none" />
    </g>
  </g>
</svg>