<?xml version="1.0" encoding="utf-8"?>
<svg width="158px" height="35px" viewBox="0 0 158 35" version="1.1" xmlns:xlink="http://www.w3.org/1999/xlink" xmlns="http://www.w3.org/2000/svg">
  <desc>Created with Lunacy</desc>
  <g id="logo">
    <path d="M8.65808 5.51576C9.08151 5.11461 9.76124 4.91404 10.6972 4.91404L11.3324 4.94747L11.3324 0.0334293C11.065 0.0111434 10.6638 0 10.129 0Q6.28463 -5.36442e-07 4.26218 1.88873Q2.23974 3.77746 2.23974 7.25406L2.23974 7.45463L0 7.45463L0 12.2684L2.23974 12.2684L2.23974 26.1079L7.95608 26.1079L7.95608 12.2684L11.3324 12.2684L11.3324 7.45463L7.95608 7.45463C8.00065 6.5632 8.23465 5.9169 8.65808 5.51576ZM60.3057 26.108L60.3057 21.194L58.5005 21.194C57.7873 21.194 57.2803 21.0492 56.9795 20.7594C56.6786 20.4697 56.5282 19.9571 56.5282 19.2217L56.5282 12.2685L60.2722 12.2685L60.2722 7.45475L56.5282 7.45475L56.5282 2.875L50.8119 2.875L50.8119 7.45475L48.3047 7.45475L48.3047 12.2685L50.8119 12.2685L50.8119 19.1214C50.8119 21.6174 51.4192 23.4059 52.6337 24.4867Q54.4556 26.108 57.7316 26.108L60.3057 26.108ZM27.5287 8.374Q25.3391 7.22071 22.5645 7.2207C20.7148 7.22071 19.0545 7.60513 17.5836 8.374C16.1127 9.14286 14.9594 10.2516 14.1237 11.7002C13.288 13.1488 12.8701 14.8425 12.8701 16.7814C12.8701 18.7202 13.288 20.414 14.1237 21.8625C14.9594 23.3111 16.1127 24.4198 17.5836 25.1887C19.0545 25.9576 20.7148 26.342 22.5645 26.342Q25.3391 26.342 27.5287 25.1887C28.9884 24.4198 30.1361 23.3111 30.9718 21.8625C31.8076 20.414 32.2254 18.7202 32.2254 16.7814C32.2254 14.8425 31.8076 13.1487 30.9718 11.7002Q29.7183 9.52729 27.5287 8.374ZM81.065 17.8176C81.1764 17.2605 81.2322 16.7479 81.2322 16.2799Q81.2322 13.6056 80.0789 11.5497C79.31 10.1792 78.2236 9.115 76.8196 8.35728C75.4155 7.59956 73.7887 7.22071 71.9389 7.2207C70.1115 7.22071 68.4846 7.60513 67.0583 8.374C65.632 9.14286 64.5233 10.246 63.7322 11.6835C62.941 13.1209 62.5454 14.8202 62.5454 16.7814C62.5454 18.7202 62.9466 20.414 63.7489 21.8625C64.5511 23.3111 65.6599 24.4198 67.075 25.1887C68.4902 25.9576 70.1115 26.342 71.9389 26.342C73.4989 26.342 74.9141 26.0467 76.1844 25.4561C77.4547 24.8656 78.5021 24.0521 79.3267 23.0158C80.1513 21.9795 80.6861 20.804 80.9313 19.4891L74.8807 19.4891C74.7024 20.1577 74.3347 20.7037 73.7775 21.1271C73.2204 21.5505 72.5184 21.7622 71.6715 21.7622C70.6686 21.7622 69.8441 21.4558 69.1978 20.843Q68.2283 19.9237 68.128 17.8176L81.065 17.8176ZM40.917 10.9645C41.6302 9.82793 42.5495 8.92535 43.6749 8.25677C44.8004 7.58819 46.0205 7.25391 47.3354 7.25391L47.3354 13.3714L45.6974 13.3714C44.1819 13.3714 43.0063 13.6945 42.1706 14.3408C41.3349 14.9871 40.917 16.0791 40.917 17.6168L40.917 26.1078L35.2007 26.1078L35.2007 7.45448L40.917 7.45448L40.917 10.9645ZM75.4489 15.4106C75.4712 14.1848 75.1424 13.2656 74.4627 12.6527C73.783 12.0398 72.9417 11.7334 71.9389 11.7334C70.8914 11.7334 70.0223 12.0454 69.3314 12.6694C68.6405 13.2934 68.2505 14.2071 68.1614 15.4106L75.4489 15.4106ZM22.5645 12.168C21.4725 12.168 20.5532 12.5635 19.8066 13.3547Q18.6868 14.5414 18.6868 16.7812Q18.6868 19.0209 19.8066 20.1909C20.5532 20.9709 21.4725 21.3609 22.5645 21.3609C23.6565 21.3609 24.5703 20.9709 25.3057 20.1909C26.0411 19.4109 26.4088 18.2743 26.4088 16.7812C26.4088 15.288 26.0411 14.1458 25.3057 13.3547C24.5703 12.5635 23.6565 12.168 22.5645 12.168Z" transform="translate(76.28443 0)" id="forte" fill="#E23C3C" fill-rule="evenodd" stroke="none" />
    <path d="M53.2522 23.2331L53.2522 18.319L51.447 18.319Q50.3773 18.319 49.926 17.8844C49.6252 17.5947 49.4747 17.0821 49.4747 16.3467L49.4747 9.39351L53.2188 9.39351L53.2188 4.57975L49.4747 4.57975L49.4747 0L43.7584 0L43.7584 4.57975L41.2512 4.57975L41.2512 9.39351L43.7584 9.39351L43.7584 16.2464C43.7584 18.7424 44.3657 20.5309 45.5803 21.6118Q47.4021 23.2331 50.6782 23.2331L53.2522 23.2331ZM15.4441 6.33472Q13.0038 4.34571 9.39351 4.3457C7.56606 4.34571 5.93919 4.73013 4.5129 5.499Q2.37345 6.6523 1.18672 8.80845Q0 10.9646 0 13.9064Q-2.5332e-07 16.8147 1.20344 18.9875C2.00573 20.4361 3.11445 21.5448 4.52961 22.3137Q6.65234 23.467 9.39351 23.467C11.8004 23.467 13.8173 22.804 15.4441 21.478C17.071 20.152 18.0962 18.3301 18.5196 16.0124L12.469 16.0124C12.2907 16.8147 11.923 17.4387 11.3658 17.8844C10.8087 18.3301 10.1067 18.553 9.25979 18.553C8.25693 18.553 7.43235 18.1574 6.78606 17.3662Q5.81662 16.1795 5.81662 13.9064Q5.81662 11.6332 6.78606 10.4465C7.43235 9.65532 8.25693 9.25974 9.25979 9.25974Q10.5301 9.25974 11.3658 9.92832C11.923 10.374 12.2907 10.998 12.469 11.8003L18.5196 11.8003C18.0962 9.4826 17.071 7.66073 15.4441 6.33472ZM70.1505 5.499C68.6908 4.73013 67.036 4.34571 65.1863 4.3457Q62.4117 4.34571 60.2054 5.499C58.7346 6.26786 57.5813 7.37659 56.7455 8.82517C55.9098 10.2738 55.492 11.9675 55.492 13.9064C55.492 15.8452 55.9098 17.539 56.7455 18.9875C57.5813 20.4361 58.7346 21.5448 60.2054 22.3137Q62.4117 23.467 65.1863 23.467C67.036 23.467 68.6908 23.0826 70.1505 22.3137C71.6102 21.5448 72.7579 20.4361 73.5937 18.9875C74.4294 17.539 74.8473 15.8452 74.8473 13.9064C74.8473 11.9675 74.4294 10.2738 73.5937 8.82517Q72.3401 6.65229 70.1505 5.499ZM25.807 4.57959L30.2865 16.0123L34.4651 4.57959L40.7832 4.57959L29.1499 32.125L22.8653 32.125L27.2445 22.5309L19.4221 4.57959L25.807 4.57959ZM65.1863 9.29297C64.0943 9.29297 63.175 9.68855 62.4285 10.4797C61.6819 11.2708 61.3086 12.413 61.3086 13.9062C61.3086 15.3993 61.6819 16.5359 62.4285 17.3159Q63.5483 18.4859 65.1863 18.4859C66.2784 18.4859 67.1921 18.0959 67.9275 17.3159C68.663 16.5359 69.0307 15.3993 69.0307 13.9062C69.0307 12.413 68.663 11.2708 67.9275 10.4797C67.1921 9.68855 66.2784 9.29297 65.1863 9.29297Z" transform="translate(0 2.875)" id="cyto" fill="#000000" fill-rule="evenodd" stroke="none" />
  </g>
</svg>